<svg width="194" height="183" viewBox="0 0 194 183" fill="none" xmlns="http://www.w3.org/2000/svg">
<path d="M192.062 1.89417C192.062 15.3308 193.37 27.4974 187.85 39.6409C179.867 57.2039 161.517 68.6898 144.488 76.1399C132.04 81.586 91.614 81.8047 80.381 74.8921C74.8992 71.5187 68.079 71.7183 68.5266 63.6616C68.9448 56.1346 79.7283 55.2388 85.3723 55.2388C102.818 55.2388 107.348 55.2016 120.311 66.3133C136.073 79.8235 114.101 113.887 105.026 123.869C83.1152 147.971 48.9498 159.12 17.9896 159.12" stroke="black" stroke-width="3" stroke-linecap="round"/>
<path d="M40.3517 136.964C37.6826 134.591 34.6839 137.02 32.1721 138.276C29.9269 139.399 27.5181 140.853 25.5072 142.417C23.3537 144.092 19.6611 145.237 18.0346 147.011C13.6152 151.833 8.36352 155.829 3.29112 159.887C0.0945083 162.444 4.70464 162.898 8.13827 164.683C12.7996 167.107 17.3013 169.854 21.7709 172.408C27.4292 175.642 38.2289 180.588 44.8959 180.588" stroke="black" stroke-width="3" stroke-linecap="round"/>
</svg>
