<svg width="212" height="223" viewBox="0 0 212 223" fill="none" xmlns="http://www.w3.org/2000/svg">
<path d="M36.064 2.38916C49.2612 4.91448 61.4569 5.91603 72.3466 13.6198C88.0962 24.7615 95.9287 44.9433 100.046 63.0688C103.055 76.3187 95.672 116.065 86.7715 125.799C82.4279 130.549 81.3422 137.285 73.5132 135.331C66.1989 133.506 67.3458 122.746 68.4065 117.203C71.6852 100.069 72.5001 95.612 85.8502 84.9678C102.082 72.0259 131.408 100.009 139.508 110.799C159.062 136.848 163.592 172.5 157.773 202.909" stroke="black" stroke-width="3" stroke-linecap="round"/>
<path d="M140.214 176.781C137.382 178.957 139.204 182.358 139.966 185.061C140.647 187.478 141.622 190.117 142.78 192.386C144.02 194.816 144.451 198.658 145.888 200.589C149.793 205.836 152.731 211.745 155.763 217.489C157.674 221.11 158.986 216.667 161.385 213.63C164.642 209.507 168.186 205.602 171.535 201.692C175.774 196.742 182.662 187.065 183.915 180.517" stroke="black" stroke-width="3" stroke-linecap="round"/>
</svg>
