<svg width="42" height="42" viewBox="0 0 42 42" fill="none" xmlns="http://www.w3.org/2000/svg">
<path d="M15.359 35.293C5.10256 38.1465 5.10256 30.5372 1 29.586M29.7179 41V33.638C29.7949 32.7309 29.6627 31.819 29.3303 30.9629C28.9978 30.1068 28.4727 29.3262 27.7897 28.6729C34.2308 28.0071 41 25.7433 41 15.3565C40.9995 12.7005 39.8978 10.1464 37.9231 8.22277C38.8582 5.89908 38.792 3.33063 37.7385 1.05097C37.7385 1.05097 35.3179 0.385152 29.7179 3.86643C25.0164 2.68474 20.0605 2.68474 15.359 3.86643C9.75897 0.385152 7.33846 1.05097 7.33846 1.05097C6.28487 3.33063 6.21876 5.89908 7.15385 8.22277C5.16436 10.1607 4.06158 12.7379 4.07692 15.4136C4.07692 25.7243 10.8462 27.988 17.2872 28.7299C16.6123 29.3767 16.0918 30.148 15.7596 30.9936C15.4274 31.8392 15.2909 32.7402 15.359 33.638V41" stroke="black" stroke-width="2" stroke-linecap="round" stroke-linejoin="round"/>
</svg>
