<svg width="65" height="61" viewBox="0 0 65 61" fill="none" xmlns="http://www.w3.org/2000/svg">
<rect width="65" height="61" rx="10" fill="#545D78"/>
<path d="M27.359 45.293C17.1026 48.1465 17.1026 40.5372 13 39.586M41.718 51V43.638C41.7949 42.7309 41.6627 41.819 41.3303 40.9629C40.9978 40.1068 40.4727 39.3262 39.7897 38.6729C46.2308 38.0071 53 35.7433 53 25.3565C52.9995 22.7005 51.8978 20.1464 49.9231 18.2228C50.8582 15.8991 50.7921 13.3306 49.7385 11.051C49.7385 11.051 47.318 10.3852 41.718 13.8664C37.0164 12.6847 32.0605 12.6847 27.359 13.8664C21.759 10.3852 19.3385 11.051 19.3385 11.051C18.2849 13.3306 18.2188 15.8991 19.1538 18.2228C17.1644 20.1607 16.0616 22.7379 16.0769 25.4136C16.0769 35.7243 22.8462 37.988 29.2872 38.7299C28.6123 39.3767 28.0918 40.148 27.7596 40.9936C27.4274 41.8392 27.2909 42.7402 27.359 43.638V51" stroke="white" stroke-width="2" stroke-linecap="round" stroke-linejoin="round"/>
</svg>
