<svg width="65" height="61" viewBox="0 0 65 61" fill="none" xmlns="http://www.w3.org/2000/svg">
<rect width="65" height="61" rx="10" fill="#545D78"/>
<path d="M26.0224 20.8355H26.0225L26.0223 20.8241C25.9993 19.8193 25.6249 18.9093 24.9394 18.2505C24.2531 17.5909 23.2887 17.2152 22.1436 17.2152C21.0002 17.2152 20.0183 17.5899 19.318 18.2461C18.6165 18.9035 18.2258 19.8177 18.2258 20.8355C18.2258 22.8592 19.7754 24.4559 22.0634 24.4559H22.1039C23.269 24.4559 24.2522 24.0702 24.9477 23.4076C25.6431 22.7451 26.0224 21.8319 26.0224 20.8355ZM35.17 33.1237L35.1714 33.1205C35.5609 32.1604 36.4091 31.2362 37.8085 31.2362C38.7553 31.2362 39.3574 31.5838 39.7458 32.1506C40.1558 32.7489 40.3685 33.6524 40.3685 34.82V41.4642C40.3685 43.4087 41.9448 44.9851 43.8893 44.9851C45.8338 44.9851 47.41 43.4089 47.4102 41.4645L47.4108 34.1268C47.4108 31.2658 46.6414 29.0977 45.2902 27.6409C43.9358 26.1805 42.0533 25.4962 39.9556 25.4962C37.8432 25.4962 36.4196 26.2157 35.4341 27.0972C35.3798 27.1457 35.2667 27.1755 35.1409 27.1315C35.0188 27.0888 35.0098 27.028 35.0098 27.0084C35.0098 26.4086 34.5235 25.9224 33.9237 25.9224H31.5597C29.5957 25.9224 27.9951 27.5542 28.0006 29.5104C28.0102 32.8893 27.9939 38.1564 27.9812 41.459C27.9736 43.4066 29.5502 44.9843 31.4963 44.9843C33.4368 44.9843 35.0098 43.4112 35.0098 41.4708V34.397C35.0098 33.8585 35.052 33.4089 35.17 33.1237ZM15.9548 11.5H50.0428C51.4148 11.5 52.5 12.5736 52.5 13.8654V48.1354C52.5 49.4249 51.4155 50.5 50.0428 50.5H15.9548C14.5847 50.5 13.5 49.4259 13.5 48.1354V13.8654C13.5 12.574 14.5848 11.5 15.9548 11.5ZM18.5828 29.444V41.4643C18.5828 43.4088 20.159 44.9851 22.1035 44.9851C24.0479 44.9851 25.6242 43.4088 25.6242 41.4643V29.444C25.6242 27.4995 24.0479 25.9232 22.1035 25.9232C20.159 25.9232 18.5828 27.4995 18.5828 29.444Z" fill="white" stroke="white"/>
</svg>
