<svg width="65" height="61" viewBox="0 0 65 61" fill="none" xmlns="http://www.w3.org/2000/svg">
<rect width="65" height="61" rx="10" fill="#545D78"/>
<path d="M33 19.5968C27.3548 19.5968 22.6774 24.1935 22.6774 29.9193C22.6774 35.6452 27.2741 40.2419 33 40.2419C38.7258 40.2419 43.3225 35.5645 43.3225 29.9193C43.3225 24.2742 38.6451 19.5968 33 19.5968ZM33 36.5323C29.3709 36.5323 26.387 33.5484 26.387 29.9193C26.387 26.2903 29.3709 23.3064 33 23.3064C36.629 23.3064 39.6129 26.2903 39.6129 29.9193C39.6129 33.5484 36.629 36.5323 33 36.5323Z" fill="white"/>
<path d="M43.7258 21.6935C45.0174 21.6935 46.0645 20.6465 46.0645 19.3548C46.0645 18.0632 45.0174 17.0161 43.7258 17.0161C42.4342 17.0161 41.3871 18.0632 41.3871 19.3548C41.3871 20.6465 42.4342 21.6935 43.7258 21.6935Z" fill="white"/>
<path d="M49.7742 13.3065C47.6774 11.129 44.6935 10 41.3065 10H24.6935C17.6774 10 13 14.6774 13 21.6935V38.2258C13 41.6935 14.129 44.6774 16.3871 46.8548C18.5645 48.9516 21.4677 50 24.7742 50H41.2258C44.6935 50 47.5968 48.871 49.6935 46.8548C51.871 44.7581 53 41.7742 53 38.3065V21.6935C53 18.3065 51.871 15.4032 49.7742 13.3065ZM49.4516 38.3065C49.4516 40.8065 48.5645 42.8226 47.1129 44.1935C45.6613 45.5645 43.6452 46.2903 41.2258 46.2903H24.7742C22.3548 46.2903 20.3387 45.5645 18.8871 44.1935C17.4355 42.7419 16.7097 40.7258 16.7097 38.2258V21.6935C16.7097 19.2742 17.4355 17.2581 18.8871 15.8065C20.2581 14.4355 22.3548 13.7097 24.7742 13.7097H41.3871C43.8064 13.7097 45.8226 14.4355 47.2742 15.8871C48.6452 17.3387 49.4516 19.3548 49.4516 21.6935V38.3065Z" fill="white"/>
</svg>
