<svg width="156" height="152" viewBox="0 0 156 152" fill="none" xmlns="http://www.w3.org/2000/svg">
<ellipse cx="78" cy="74.1456" rx="67.6" ry="47.9612" fill="black"/>
<path d="M155.5 73.4078C155.5 88.4845 146.887 102.182 132.865 112.131C118.844 122.079 99.4476 128.248 78 128.248C56.5524 128.248 37.1562 122.079 23.135 112.131C9.1126 102.182 0.5 88.4845 0.5 73.4078C0.5 58.331 9.1126 44.6331 23.135 34.6844C37.1562 24.7366 56.5524 18.568 78 18.568C99.4476 18.568 118.844 24.7366 132.865 34.6844C146.887 44.6331 155.5 58.331 155.5 73.4078Z" stroke="black"/>
<path d="M62.2148 47.9023L52.1367 25.9297H87.8203L130.477 113.059H92.2148L85.7695 99.1133H51.4336L45.0469 113.059H30.2227L62.2148 47.9023ZM79.6172 85.6953L68.6016 61.7891L57.6445 85.6953H79.6172Z" fill="white"/>
</svg>
